<mxfile host="Electron" agent="Mozilla/5.0 (Windows NT 10.0; Win64; x64) AppleWebKit/537.36 (KHTML, like Gecko) draw.io/28.2.8 Chrome/140.0.7339.240 Electron/38.4.0 Safari/537.36" version="28.2.8">
  <diagram name="Page-1" id="hvYObeEvf8icABEYhWRn">
    <mxGraphModel dx="1426" dy="841" grid="1" gridSize="10" guides="1" tooltips="1" connect="1" arrows="1" fold="1" page="1" pageScale="1" pageWidth="850" pageHeight="1100" math="0" shadow="0">
      <root>
        <mxCell id="0" />
        <mxCell id="1" parent="0" />
        <mxCell id="IAEuGRo9NamqtoYBYBKe-1" value="&lt;h1 style=&quot;margin-top: 0px;&quot;&gt;đăng nhập&lt;/h1&gt;&lt;p&gt;tên : đăng nhập&lt;/p&gt;&lt;p&gt;actor : người dùng ,người quản trị&lt;/p&gt;&lt;p&gt;mục tiêu : người dùng đăng nhập để sử dụng dịch vụ, người quản trị đăng nhập để tạo dịch vụ và kiểm soát người sử dụng&lt;/p&gt;&lt;p&gt;luồng chính : người dùng nhập tên và mk sau đó hệ thống kiểm tra và đăng nhập , người quản trị cũng vậy&lt;/p&gt;&lt;p&gt;luồng lỗi : sai tên đăng nhập, sai mật khẩu, chưa đăng ký tài khoản&lt;/p&gt;" style="text;html=1;whiteSpace=wrap;overflow=hidden;rounded=0;" vertex="1" parent="1">
          <mxGeometry x="20" y="270" width="750" height="440" as="geometry" />
        </mxCell>
      </root>
    </mxGraphModel>
  </diagram>
</mxfile>
